<svg width="80" height="80" viewBox="0 0 80 80" fill="none" xmlns="http://www.w3.org/2000/svg">
<g id="JAVA">
<rect id="BG" width="80" height="80" rx="40" fill="#D63033"/>
<mask id="mask0_4_3689" style="mask-type:luminance" maskUnits="userSpaceOnUse" x="0" y="0" width="80" height="80">
<rect id="Mask" width="80" height="80" rx="40" fill="white"/>
</mask>
<g mask="url(#mask0_4_3689)">
<g id="Just Logo">
<path id="Fill 1" fill-rule="evenodd" clip-rule="evenodd" d="M44.9167 11.2C46.0134 12.4487 46.3754 14.2342 46.0601 15.8446C45.7217 17.6535 44.718 19.2523 43.5395 20.6293C42.5942 21.738 41.5088 22.7182 40.3769 23.6285C39.0582 24.6905 37.7629 25.8341 36.9343 27.3279C36.2341 28.5415 36.0707 30.0353 36.5492 31.354C37.3311 33.618 39.1516 35.2984 40.1435 37.434C39.0466 36.4654 37.9729 35.4618 36.9693 34.3998C35.919 33.2795 34.9271 32.0892 34.2736 30.6888C33.8301 29.7085 33.6317 28.5649 33.9701 27.5263C34.3086 26.4643 35.0671 25.6124 35.8257 24.8188C37.9379 22.7066 40.5404 21.1545 42.6059 19.0072C43.7497 17.8285 44.6948 16.4165 45.0215 14.7944C45.29 13.604 45.1616 12.3787 44.9167 11.2Z" fill="white"/>
<path id="Stroke 2" fill-rule="evenodd" clip-rule="evenodd" d="M44.9167 11.2C46.0134 12.4487 46.3754 14.2342 46.0601 15.8446C45.7217 17.6535 44.718 19.2523 43.5395 20.6293C42.5942 21.738 41.5088 22.7182 40.3769 23.6285C39.0582 24.6905 37.7629 25.8341 36.9343 27.3279C36.2341 28.5415 36.0707 30.0353 36.5492 31.354C37.3311 33.618 39.1516 35.2984 40.1435 37.434C39.0466 36.4654 37.9729 35.4618 36.9693 34.3998C35.919 33.2795 34.9271 32.0892 34.2736 30.6888C33.8301 29.7085 33.6317 28.5649 33.9701 27.5263C34.3086 26.4643 35.0671 25.6124 35.8257 24.8188C37.9379 22.7066 40.5404 21.1545 42.6059 19.0072C43.7497 17.8285 44.6948 16.4165 45.0215 14.7944C45.29 13.604 45.1616 12.3787 44.9167 11.2Z" stroke="white" stroke-width="0.094"/>
<path id="Fill 4" fill-rule="evenodd" clip-rule="evenodd" d="M43.1894 24.4921C45.4534 22.8233 48.1024 21.7613 50.7864 20.9911C48.6626 22.3448 46.4454 23.5818 44.6131 25.3206C43.948 25.9625 43.3177 26.6977 43.0259 27.5963C42.8042 28.2615 42.8977 28.9967 43.1662 29.6268C43.6562 30.7472 44.4847 31.6574 45.115 32.6844C45.6517 33.5596 45.7452 34.6799 45.3367 35.6252C44.7181 37.0139 43.5044 38.0292 42.2442 38.8344C42.0808 38.9278 41.9409 39.1028 41.7422 39.1262C42.5827 38.3676 43.2361 37.294 43.2127 36.1387C43.1894 35.2751 42.711 34.5165 42.1507 33.898C40.9954 32.521 40.0269 30.7705 40.2253 28.915C40.4238 27.0595 41.7539 25.5657 43.1894 24.4921Z" fill="white"/>
<path id="Stroke 5" fill-rule="evenodd" clip-rule="evenodd" d="M43.1894 24.4921C45.4534 22.8233 48.1024 21.7613 50.7864 20.9911C48.6626 22.3448 46.4454 23.5818 44.6131 25.3206C43.948 25.9625 43.3177 26.6977 43.0259 27.5963C42.8042 28.2615 42.8977 28.9967 43.1662 29.6268C43.6562 30.7472 44.4847 31.6574 45.115 32.6844C45.6517 33.5596 45.7452 34.6799 45.3367 35.6252C44.7181 37.0139 43.5044 38.0292 42.2442 38.8344C42.0808 38.9278 41.9409 39.1028 41.7422 39.1262C42.5827 38.3676 43.2361 37.294 43.2127 36.1387C43.1894 35.2751 42.711 34.5165 42.1507 33.898C40.9954 32.521 40.0269 30.7705 40.2253 28.915C40.4238 27.0595 41.7539 25.5657 43.1894 24.4921Z" stroke="white" stroke-width="0.094"/>
<path id="Fill 6" fill-rule="evenodd" clip-rule="evenodd" d="M51.2185 37.9825C51.7085 37.3873 52.4903 37.2356 53.2024 37.1423C54.4393 36.9789 55.7578 37.294 56.6914 38.1459C57.4619 38.8344 57.8936 39.908 57.7301 40.9467C57.555 42.1487 56.7498 43.1523 55.8397 43.9108C54.1943 45.2295 52.1636 45.9997 50.1331 46.5133C50.2498 46.3847 50.378 46.268 50.5298 46.1748C52.0701 45.3462 53.5989 44.3776 54.731 43.0239C55.4197 42.1837 55.9564 41.0867 55.7346 39.9781C55.5012 38.6944 54.2527 37.7608 52.9805 37.6908C52.3736 37.6324 51.802 37.8658 51.2185 37.9825Z" fill="white"/>
<path id="Stroke 7" fill-rule="evenodd" clip-rule="evenodd" d="M51.2185 37.9825C51.7085 37.3873 52.4903 37.2356 53.2024 37.1423C54.4393 36.9789 55.7578 37.294 56.6914 38.1459C57.4619 38.8344 57.8936 39.908 57.7301 40.9467C57.555 42.1487 56.7498 43.1523 55.8397 43.9108C54.1943 45.2295 52.1636 45.9997 50.1331 46.5133C50.2498 46.3847 50.378 46.268 50.5298 46.1748C52.0701 45.3462 53.5989 44.3776 54.731 43.0239C55.4197 42.1837 55.9564 41.0867 55.7346 39.9781C55.5012 38.6944 54.2527 37.7608 52.9805 37.6908C52.3736 37.6324 51.802 37.8658 51.2185 37.9825Z" stroke="white" stroke-width="0.094"/>
<path id="Fill 8" fill-rule="evenodd" clip-rule="evenodd" d="M27.7618 39.0445C29.909 38.1225 32.2429 37.5274 34.5887 37.5624C33.2233 37.9592 31.8229 38.2976 30.5392 38.9044C30.2358 39.0678 29.8857 39.2195 29.7107 39.5346C29.6172 39.7797 29.874 39.943 30.0608 40.0247C30.8543 40.3515 31.7296 40.3982 32.5815 40.4799C35.569 40.6783 38.5681 40.5616 41.544 40.3748C44.4847 40.1881 47.4022 39.7913 50.3081 39.3245C49.6662 39.628 49.0127 39.9314 48.4177 40.3165C48.114 40.5265 47.7407 40.5849 47.4022 40.6666C43.8313 41.4601 40.1669 41.7052 36.5259 41.7636C35.1138 41.7752 33.7134 41.7519 32.3131 41.6585C30.7493 41.5535 29.1738 41.4368 27.6451 41.0283C27.2016 40.9 26.7348 40.7599 26.3847 40.4449C26.2097 40.3048 26.2097 40.0247 26.3614 39.8614C26.7465 39.4646 27.2833 39.2779 27.7618 39.0445Z" fill="white"/>
<path id="Stroke 9" fill-rule="evenodd" clip-rule="evenodd" d="M27.7618 39.0445C29.909 38.1225 32.2429 37.5274 34.5887 37.5624C33.2233 37.9592 31.8229 38.2976 30.5392 38.9044C30.2358 39.0678 29.8857 39.2195 29.7107 39.5346C29.6172 39.7797 29.874 39.943 30.0608 40.0247C30.8543 40.3515 31.7296 40.3982 32.5815 40.4799C35.569 40.6783 38.5681 40.5616 41.544 40.3748C44.4847 40.1881 47.4022 39.7913 50.3081 39.3245C49.6662 39.628 49.0127 39.9314 48.4177 40.3165C48.114 40.5265 47.7407 40.5849 47.4022 40.6666C43.8313 41.4601 40.1669 41.7052 36.5259 41.7636C35.1138 41.7752 33.7134 41.7519 32.3131 41.6585C30.7493 41.5535 29.1738 41.4368 27.6451 41.0283C27.2016 40.9 26.7348 40.7599 26.3847 40.4449C26.2097 40.3048 26.2097 40.0247 26.3614 39.8614C26.7465 39.4646 27.2833 39.2779 27.7618 39.0445Z" stroke="white" stroke-width="0.094"/>
<path id="Fill 10" fill-rule="evenodd" clip-rule="evenodd" d="M30.5159 44.0275C31.1228 43.5491 31.8463 43.2807 32.5698 43.0239C32.3364 43.304 32.0097 43.5724 31.9864 43.9575C31.9747 44.2026 32.1731 44.3893 32.3715 44.506C32.7566 44.7044 33.1884 44.7744 33.6201 44.8328C35.8608 45.0662 38.1247 45.1945 40.3887 45.0428C42.4542 44.9378 44.5083 44.5994 46.5505 44.2376C47.1105 44.7627 47.7759 45.1245 48.4761 45.4396C46.0135 46.1631 43.4812 46.5833 40.9371 46.7815C38.5332 46.945 36.0942 46.9334 33.7018 46.5481C32.7566 46.3731 31.788 46.1748 30.9244 45.7314C30.5743 45.5446 30.1775 45.2996 30.0725 44.8911C30.0025 44.541 30.2592 44.2259 30.5159 44.0275Z" fill="white"/>
<path id="Stroke 11" fill-rule="evenodd" clip-rule="evenodd" d="M30.5159 44.0275C31.1228 43.5491 31.8463 43.2807 32.5698 43.0239C32.3364 43.304 32.0097 43.5724 31.9864 43.9575C31.9747 44.2026 32.1731 44.3893 32.3715 44.506C32.7566 44.7044 33.1884 44.7744 33.6201 44.8328C35.8608 45.0662 38.1247 45.1945 40.3887 45.0428C42.4542 44.9378 44.5083 44.5994 46.5505 44.2376C47.1105 44.7627 47.7759 45.1245 48.4761 45.4396C46.0135 46.1631 43.4812 46.5833 40.9371 46.7815C38.5332 46.945 36.0942 46.9334 33.7018 46.5481C32.7566 46.3731 31.788 46.1748 30.9244 45.7314C30.5743 45.5446 30.1775 45.2996 30.0725 44.8911C30.0025 44.541 30.2592 44.2259 30.5159 44.0275Z" stroke="white" stroke-width="0.094"/>
<path id="Fill 12" fill-rule="evenodd" clip-rule="evenodd" d="M31.8696 49.1155C32.4064 48.6838 33.0716 48.4621 33.7252 48.2754C33.5151 48.4737 33.1417 48.7187 33.305 49.0572C33.6201 49.4656 34.2036 49.5124 34.6704 49.6174C36.6426 49.8625 38.6382 50.0259 40.6104 49.8741C42.104 49.7809 43.5747 49.5124 45.0334 49.2558C45.8736 49.7458 46.7488 50.1658 47.6473 50.5395C46.2703 51.1577 44.7881 51.5546 43.3062 51.8347C40.8087 52.2781 38.2297 52.3364 35.7207 51.9399C34.6121 51.7412 33.4801 51.4846 32.4765 50.936C32.0914 50.7145 31.6829 50.4576 31.5195 50.0259C31.3912 49.6875 31.6012 49.3257 31.8696 49.1155Z" fill="white"/>
<path id="Stroke 13" fill-rule="evenodd" clip-rule="evenodd" d="M31.8696 49.1155C32.4064 48.6838 33.0716 48.4621 33.7252 48.2754C33.5151 48.4737 33.1417 48.7187 33.305 49.0572C33.6201 49.4656 34.2036 49.5124 34.6704 49.6174C36.6426 49.8625 38.6382 50.0259 40.6104 49.8741C42.104 49.7809 43.5747 49.5124 45.0334 49.2558C45.8736 49.7458 46.7488 50.1658 47.6473 50.5395C46.2703 51.1577 44.7881 51.5546 43.3062 51.8347C40.8087 52.2781 38.2297 52.3364 35.7207 51.9399C34.6121 51.7412 33.4801 51.4846 32.4765 50.936C32.0914 50.7145 31.6829 50.4576 31.5195 50.0259C31.3912 49.6875 31.6012 49.3257 31.8696 49.1155Z" stroke="white" stroke-width="0.094"/>
<path id="Fill 14" fill-rule="evenodd" clip-rule="evenodd" d="M25.3928 52.4182C26.4665 52.0566 27.5751 51.7648 28.7071 51.7297C29.1622 51.718 29.629 51.7412 30.0258 51.9746C28.6721 52.0566 27.3184 52.3948 26.1047 53.0134C25.8363 53.1652 25.5329 53.3403 25.4278 53.6552C25.4278 54.0169 25.8363 54.1336 26.1047 54.2503C27.7968 54.8806 29.6057 55.0788 31.3795 55.2658C36.666 55.709 41.9874 55.5923 47.274 55.114C49.2694 54.8921 51.2769 54.6704 53.214 54.122C53.8323 53.9119 54.5325 53.7019 54.941 53.1533C55.1863 52.8267 55.0228 52.4182 54.7778 52.1381C55.1744 52.3599 55.7347 52.6401 55.6531 53.1768C55.5013 53.7368 54.9293 54.0286 54.4625 54.2971C52.969 55.0556 51.3233 55.4408 49.6895 55.779C44.94 56.7126 40.0736 56.9228 35.2423 56.7829C31.6012 56.6543 27.9602 56.3042 24.3659 55.6858C23.724 55.534 23.0005 55.4057 22.5337 54.9038C22.2303 54.5537 22.4987 54.0637 22.7904 53.8071C23.5256 53.1301 24.4709 52.7568 25.3928 52.4182Z" fill="white"/>
<path id="Stroke 15" fill-rule="evenodd" clip-rule="evenodd" d="M25.3928 52.4182C26.4665 52.0566 27.5751 51.7648 28.7071 51.7297C29.1622 51.718 29.629 51.7412 30.0258 51.9746C28.6721 52.0566 27.3184 52.3948 26.1047 53.0134C25.8363 53.1652 25.5329 53.3403 25.4278 53.6552C25.4278 54.0169 25.8363 54.1336 26.1047 54.2503C27.7968 54.8806 29.6057 55.0788 31.3795 55.2658C36.666 55.709 41.9874 55.5923 47.274 55.114C49.2694 54.8921 51.2769 54.6704 53.214 54.122C53.8323 53.9119 54.5325 53.7019 54.941 53.1533C55.1863 52.8267 55.0228 52.4182 54.7778 52.1381C55.1744 52.3599 55.7347 52.6401 55.6531 53.1768C55.5013 53.7368 54.9293 54.0286 54.4625 54.2971C52.969 55.0556 51.3233 55.4408 49.6895 55.779C44.94 56.7126 40.0736 56.9228 35.2423 56.7829C31.6012 56.6543 27.9602 56.3042 24.3659 55.6858C23.724 55.534 23.0005 55.4057 22.5337 54.9038C22.2303 54.5537 22.4987 54.0637 22.7904 53.8071C23.5256 53.1301 24.4709 52.7568 25.3928 52.4182Z" stroke="white" stroke-width="0.094"/>
<path id="Fill 16" fill-rule="evenodd" clip-rule="evenodd" d="M54.4742 56.4092C55.6531 56.0008 56.9132 55.5691 57.7885 54.6355C57.637 55.6507 56.7617 56.3509 55.8981 56.8061C54.2408 57.6697 52.3855 58.0666 50.5416 58.3931C46.6437 59.0117 42.6876 59.1633 38.7316 59.0933C36.0358 59.0117 33.3167 58.9067 30.6675 58.3464C30.0375 58.1714 29.3606 58.0547 28.8121 57.6814C31.1695 58.0781 33.5618 58.2416 35.9541 58.3348C39.8869 58.4515 43.8313 58.3 47.7408 57.8096C50.0047 57.4946 52.2804 57.1094 54.4742 56.4092Z" fill="white"/>
<path id="Stroke 17" fill-rule="evenodd" clip-rule="evenodd" d="M54.4742 56.4092C55.6531 56.0008 56.9132 55.5691 57.7885 54.6355C57.637 55.6507 56.7617 56.3509 55.8981 56.8061C54.2408 57.6697 52.3855 58.0666 50.5416 58.3931C46.6437 59.0117 42.6876 59.1633 38.7316 59.0933C36.0358 59.0117 33.3167 58.9067 30.6675 58.3464C30.0375 58.1714 29.3606 58.0547 28.8121 57.6814C31.1695 58.0781 33.5618 58.2416 35.9541 58.3348C39.8869 58.4515 43.8313 58.3 47.7408 57.8096C50.0047 57.4946 52.2804 57.1094 54.4742 56.4092Z" stroke="white" stroke-width="0.094"/>
</g>
</g>
</g>
</svg>
