<svg width="32" height="42" viewBox="0 0 32 42" fill="none" xmlns="http://www.w3.org/2000/svg">
<g id="Just Logo">
<path id="Path" d="M0 0H2.27013V2.51841H4.8493V0H7.11909V7.25335H4.8493V4.33197H2.27013V7.25335H0V0Z" fill="white"/>
<path id="Path_2" d="M8.04761 0H15.0632V1.71247H12.6903V7.25335H10.4205V1.71247H8.04761V0Z" fill="white"/>
<path id="Path_3" d="M15.9919 0H18.9838L20.1234 4.42965L21.2517 0H24.2458V7.25335H22.3885V1.75382L20.9874 7.25335H19.2642L17.8491 1.75382V7.25335H15.9919V0Z" fill="white"/>
<path id="Path_4" d="M25.6902 0H27.9596V5.44014H31.5711V7.25335H25.6902V0Z" fill="white"/>
<path id="Path_5" d="M16.3476 28.5396H16.3306H5.32812L4.11786 15.2899L4 14H16.3306H16.3476H28.6657L28.5481 15.2899L28.3237 17.7274L28.2248 18.8081H28.2091H16.3476H16.3306H9.38155L9.8316 23.7317H16.3306H16.3476H26.4497H27.7767L27.6564 25.0228L26.4995 37.6808L26.4254 38.4933L16.3477 41.2204V41.2212L16.3248 41.2275L6.23803 38.4933L5.54837 30.9439H7.82652H10.4914L10.8421 34.7784L16.3261 36.2244L16.3306 36.2233V36.2227L21.8223 34.7755L22.3943 28.5396H16.3476Z" fill="white"/>
</g>
</svg>
